<?xml version="1.0" standalone="no"?>
<!DOCTYPE svg PUBLIC "-//W3C//DTD SVG 20010904//EN"
 "http://www.w3.org/TR/2001/REC-SVG-20010904/DTD/svg10.dtd">
<svg version="1.0" xmlns="http://www.w3.org/2000/svg"
 width="877.000000pt" height="877.000000pt" viewBox="0 0 877.000000 877.000000"
 preserveAspectRatio="xMidYMid meet">
<metadata>
Created by potrace 1.11, written by Peter Selinger 2001-2013
</metadata>
<g transform="translate(0.000000,877.000000) scale(0.100000,-0.100000)"
fill="#000000" stroke="none">
<path d="M4272 8733 c-68 -135 -185 -645 -191 -835 -1 -26 -13 -78 -26 -116
-28 -80 -38 -151 -50 -347 -3 -55 -10 -113 -15 -130 -8 -28 -12 -60 -25 -197
-12 -131 -15 -167 -21 -228 -3 -36 -10 -70 -15 -77 -6 -6 -11 -85 -13 -175 -1
-90 -6 -170 -11 -178 -5 -8 -10 -149 -13 -315 -2 -165 -4 -334 -5 -377 l-2
-76 -65 46 c-189 133 -176 126 -209 112 -39 -16 -110 -91 -198 -211 -39 -53
-79 -99 -88 -103 -21 -8 -29 -2 -130 95 -113 108 -206 183 -299 244 -114 73
-176 97 -255 99 l-66 1 2 -95 c1 -115 17 -222 63 -450 15 -74 31 -167 36 -217
2 -27 6 -67 9 -91 4 -39 19 -134 31 -192 3 -14 12 -76 20 -139 10 -81 25 -144
53 -221 22 -59 43 -124 46 -143 l7 -35 -89 23 c-48 13 -140 37 -203 53 -63 17
-142 36 -175 41 -33 6 -71 14 -85 17 -35 7 -256 12 -307 7 l-43 -5 0 -58 c0
-33 4 -61 8 -64 5 -3 23 -34 40 -68 17 -35 66 -103 110 -153 122 -140 408
-425 499 -498 l83 -66 -38 -10 c-20 -5 -64 -15 -97 -21 -81 -16 -208 -50 -217
-59 -10 -9 54 -103 103 -152 100 -100 352 -232 502 -263 137 -29 141 -32 183
-141 46 -118 99 -220 157 -302 76 -107 205 -243 274 -289 32 -20 71 -48 87
-61 33 -28 175 -101 286 -148 70 -30 75 -34 77 -66 2 -19 6 -336 9 -706 5
-670 5 -671 -16 -678 -11 -3 -20 -11 -20 -16 0 -6 4 -8 8 -5 4 2 14 1 21 -4
10 -6 14 -35 16 -99 1 -80 -2 -100 -31 -177 -31 -83 -58 -117 -94 -120 -8 -1
-37 -2 -64 -3 -43 -1 -57 -11 -23 -17 95 -17 97 -18 97 -49 0 -13 4 -26 10
-30 5 -3 17 -31 27 -63 25 -80 51 -122 76 -123 92 -2 819 0 821 2 2 2 24 56
49 119 49 125 49 140 2 190 -32 34 -85 186 -91 264 -10 127 -21 1542 -11 1552
1 2 55 23 118 47 132 50 278 138 356 214 30 29 67 60 83 68 16 8 36 28 44 43
8 15 35 51 61 81 100 117 193 285 245 446 13 39 25 72 26 74 2 1 20 5 41 7
112 13 336 105 449 185 88 63 202 174 210 204 7 29 -13 58 -58 81 -27 14 -182
54 -220 57 -27 2 -22 10 25 45 72 52 160 135 272 253 143 151 345 425 345 468
0 12 4 20 8 17 17 -10 35 42 29 80 -3 20 -9 39 -12 42 -10 10 -269 1 -385 -13
-65 -7 -202 -40 -265 -62 -186 -65 -216 -75 -220 -72 -1 2 10 60 26 129 60
254 76 339 84 445 3 39 8 95 10 125 2 30 11 91 19 135 20 108 24 130 31 184 4
25 8 62 11 81 8 63 6 177 -5 217 -6 22 -21 53 -32 67 -18 23 -20 31 -10 49 6
12 15 36 20 54 18 64 -47 82 -141 39 -86 -39 -207 -131 -471 -363 -16 -13 -36
-23 -45 -21 -9 2 -49 44 -90 93 -190 234 -181 225 -211 225 -16 0 -53 -17 -87
-40 -57 -38 -76 -52 -156 -112 -20 -15 -39 -28 -41 -28 -2 0 -5 66 -6 148 -3
158 -4 185 -14 247 -4 22 -9 141 -12 264 -7 269 -11 318 -40 532 -8 58 -22
151 -31 205 -18 111 -19 119 -29 189 -3 28 -8 57 -10 65 -2 8 -7 38 -10 65 -3
28 -10 75 -15 105 -5 30 -12 89 -16 130 -16 183 -27 242 -84 430 -26 86 -113
429 -125 489 -6 33 -24 90 -40 126 -7 17 -16 45 -20 63 -6 31 -8 32 -56 32
-46 0 -50 -2 -67 -37z m5 -610 c2 -104 17 -207 67 -460 4 -17 -3 -27 -25 -40
-50 -30 -63 -83 -54 -220 10 -154 10 -156 -22 -204 -26 -39 -27 -46 -27 -172
0 -117 7 -266 19 -395 2 -23 0 -40 -5 -37 -5 3 -12 1 -15 -5 -4 -6 -1 -9 7 -8
10 2 13 -29 13 -152 0 -123 -3 -154 -13 -152 -8 1 -11 -2 -7 -8 3 -6 11 -8 16
-5 10 7 11 3 11 -72 1 -47 -6 -62 -71 -170 -40 -65 -76 -125 -81 -133 -6 -8
-25 -41 -44 -73 -18 -32 -35 -52 -38 -45 -6 18 -3 79 7 163 5 39 10 138 10
220 5 510 9 583 34 578 8 -2 11 33 11 118 0 77 4 118 10 114 6 -4 10 6 11 22
1 67 7 162 14 217 4 32 9 80 10 105 1 25 5 67 10 94 6 39 10 45 21 36 8 -6 14
-8 14 -3 1 5 2 54 4 109 4 113 6 124 51 325 19 80 36 172 40 205 6 62 15 115
19 115 1 0 2 -30 3 -67z m194 -2208 c124 -187 149 -225 184 -285 17 -29 35
-57 40 -64 11 -13 16 -22 79 -131 74 -130 116 -210 157 -295 23 -47 56 -114
74 -150 57 -112 171 -416 181 -480 3 -19 10 -49 15 -66 5 -18 12 -57 14 -86 5
-63 14 -118 21 -129 3 -5 1 -17 -4 -26 -5 -10 -12 -52 -15 -93 -7 -86 -29
-154 -82 -260 -90 -180 -217 -297 -430 -398 -133 -64 -383 -80 -540 -36 -331
93 -579 368 -613 679 -28 265 27 512 192 850 46 94 108 222 139 285 160 328
469 854 488 832 4 -4 48 -70 100 -147z m-1696 -241 c33 -41 65 -81 71 -88 7
-7 46 -62 87 -122 143 -209 263 -436 435 -824 l47 -105 0 -260 c0 -309 -12
-270 177 -563 10 -15 27 -44 38 -64 23 -42 21 -43 -49 -27 -250 57 -481 345
-630 786 -61 179 -117 435 -136 623 -4 36 -8 72 -10 80 -2 8 -6 44 -9 80 -4
36 -9 81 -11 100 -2 19 -7 62 -10 95 -4 33 -15 96 -25 140 -22 93 -29 128 -36
170 -3 17 -7 36 -9 43 -10 28 13 7 70 -64z m2375 8 c20 -20 48 -54 63 -75 16
-20 55 -65 88 -99 l59 -62 -48 -51 c-27 -27 -73 -81 -102 -120 -64 -83 -110
-135 -121 -135 -4 0 -12 14 -18 31 -6 17 -31 64 -56 106 -25 41 -59 102 -75
136 -16 34 -38 77 -49 96 -24 41 -21 45 89 119 41 27 84 59 94 71 26 29 36 27
76 -17z m-1390 -54 c66 -46 120 -87 120 -93 0 -5 -23 -50 -50 -99 -28 -49 -50
-91 -50 -94 0 -2 -18 -40 -40 -83 -22 -44 -40 -85 -40 -92 0 -7 -6 -22 -14
-32 -14 -19 -15 -19 -38 6 -12 14 -49 59 -80 101 -31 41 -77 92 -101 112 -61
50 -64 62 -26 116 34 49 191 240 197 240 2 0 57 -37 122 -82z m2234 0 c-4
-115 -14 -307 -19 -343 -2 -16 -9 -77 -15 -135 -10 -86 -36 -261 -55 -365 -9
-51 -39 -178 -60 -255 -90 -323 -203 -542 -373 -717 -100 -103 -149 -141 -249
-194 -85 -44 -112 -46 -76 -6 49 55 163 263 163 299 0 7 6 25 14 40 8 15 17
48 21 74 3 26 9 52 12 57 11 19 13 193 2 241 -18 80 -20 186 -4 216 8 15 16
38 18 51 3 13 20 62 38 109 18 47 34 87 34 90 1 3 6 16 12 30 6 14 23 54 38
90 65 156 190 391 253 477 179 245 237 322 243 322 3 1 5 -36 3 -81z m461
-1208 c-169 -87 -476 -291 -778 -516 -27 -19 -45 -30 -40 -22 4 7 29 45 54 83
48 72 114 205 149 299 l20 53 63 6 c49 5 233 61 266 81 19 12 167 45 228 51
37 4 69 8 71 10 1 1 15 2 31 3 22 0 7 -11 -64 -48z m154 -37 c-69 -73 -83 -89
-197 -233 -236 -297 -507 -530 -645 -555 -24 -5 -27 -2 -27 22 -1 69 -22 165
-42 189 -6 8 27 37 99 91 170 124 388 275 505 346 114 71 306 171 338 176 2 1
-12 -16 -31 -36z m-4319 -99 c108 -50 392 -193 490 -247 65 -36 94 -57 218
-156 78 -62 92 -78 87 -95 -17 -51 -46 -163 -47 -183 -1 -13 -7 -23 -13 -23
-15 0 -150 76 -240 134 -177 116 -286 217 -449 416 -66 80 -124 150 -130 155
-6 6 -20 21 -31 34 -24 29 -25 29 115 -35z m1055 -674 c134 -87 234 -125 345
-129 66 -3 120 -20 90 -29 -8 -2 -24 -13 -35 -23 -27 -24 -78 -19 -228 20 -85
22 -138 30 -187 29 -109 -3 -131 29 -156 216 l-6 50 48 -41 c27 -22 85 -64
129 -93z m2259 59 c-3 -39 -11 -85 -18 -104 -13 -30 -19 -33 -82 -44 -37 -7
-84 -19 -103 -27 -20 -8 -72 -17 -116 -20 -44 -3 -95 -9 -114 -14 -21 -6 -40
-6 -50 0 -13 7 -10 9 12 10 15 0 29 0 32 0 2 1 48 21 100 45 108 50 185 101
265 174 30 28 60 50 66 51 8 0 10 -22 8 -71z m-564 -189 c0 -5 -10 -10 -22
-10 -19 0 -20 2 -8 10 19 13 30 13 30 0z m-205 -173 c1 -12 8 -41 15 -64 10
-33 10 -48 0 -75 -6 -18 -14 -49 -17 -68 -4 -31 -16 -57 -64 -140 -46 -80
-206 -244 -301 -310 -32 -22 -61 -40 -64 -40 -3 0 -40 25 -82 57 -233 171
-363 349 -376 516 -3 37 16 139 29 154 1 2 35 -9 76 -23 85 -30 189 -51 237
-49 17 1 32 -3 33 -9 0 -6 3 -40 5 -76 2 -36 9 -94 16 -130 6 -36 11 -102 11
-148 l-1 -82 40 22 c22 13 45 32 51 43 6 11 11 92 12 190 1 93 3 175 3 181 1
6 30 12 69 13 36 1 82 9 101 17 19 8 42 14 51 14 9 1 43 14 76 30 64 30 73 28
80 -23z m456 16 c26 -18 51 -49 71 -88 30 -58 30 -62 29 -194 -1 -74 -5 -139
-9 -143 -28 -28 -232 -31 -312 -4 -75 25 -129 78 -130 128 0 20 5 40 10 43 6
3 10 52 10 112 l0 107 48 -50 c60 -64 84 -93 128 -155 20 -27 37 -49 38 -49 8
0 48 65 51 82 5 25 -40 112 -95 186 l-40 52 81 0 c72 0 85 -3 120 -27z m-1591
2 c0 -3 -17 -29 -39 -58 -70 -94 -85 -142 -70 -221 11 -62 17 -67 38 -36 59
89 198 257 206 249 2 -2 6 -49 8 -104 3 -55 10 -112 17 -126 25 -55 -41 -123
-157 -159 -59 -19 -205 -21 -265 -5 -31 8 -31 8 -31 195 0 115 24 182 85 234
36 32 43 33 123 35 47 1 85 -1 85 -4z m-507 -154 c53 -114 76 -184 82 -250 l5
-56 -21 45 c-37 81 -102 274 -113 340 -3 19 -3 28 1 20 3 -8 24 -53 46 -99z
m2408 -20 c-6 -11 -11 -30 -11 -44 0 -13 -12 -52 -26 -88 -31 -76 -50 -101
-38 -49 4 19 8 53 8 76 1 46 68 177 74 143 2 -10 -2 -27 -7 -38z m-1604 -365
c20 -24 23 -38 22 -98 -1 -46 -5 -67 -13 -64 -6 2 -47 19 -90 36 -84 32 -176
81 -176 91 0 4 12 9 28 12 31 6 100 58 132 100 l22 28 26 -38 c14 -21 36 -51
49 -67z m1014 1 l49 -23 -72 -42 c-70 -40 -187 -92 -207 -92 -6 0 -8 27 -5 65
5 59 10 73 51 130 l47 63 44 -39 c24 -21 66 -49 93 -62z m429 -24 c-1 -23
-161 -204 -241 -273 -154 -131 -432 -265 -594 -285 -32 -4 -68 -9 -80 -12 -72
-16 -267 -6 -390 21 -144 31 -308 100 -433 183 -100 66 -235 192 -302 281 -27
37 -48 67 -46 69 1 1 18 -2 37 -7 19 -5 69 -11 111 -13 69 -3 79 -6 119 -39
79 -63 132 -95 239 -140 150 -65 207 -85 270 -93 30 -4 64 -9 75 -11 11 -1 38
-6 60 -9 60 -11 215 -12 255 -3 19 5 55 11 80 14 57 6 165 35 253 67 89 32
275 140 328 189 39 36 49 40 107 44 35 3 80 9 100 13 50 12 52 12 52 4z
m-1223 -189 c-2 -2 -19 1 -39 6 -34 10 -37 15 -29 48 1 2 17 -9 36 -24 20 -15
34 -28 32 -30z m433 37 c0 -12 -9 -20 -26 -24 l-25 -4 22 23 c27 29 29 29 29
5z m30 -780 l0 -78 -126 31 -126 31 34 14 c60 25 203 80 211 81 4 0 7 -35 7
-79z m-448 32 l100 -37 -99 -28 c-54 -15 -104 -28 -110 -28 -9 0 -13 20 -13
65 0 40 4 65 11 65 6 0 56 -17 111 -37z m449 -305 c0 -73 1 -219 3 -325 2
-189 2 -192 -19 -188 -11 3 -78 19 -150 36 -156 37 -166 37 -286 8 -52 -13
-98 -24 -103 -24 -6 0 -11 66 -12 153 -2 83 0 152 4 152 4 0 45 -10 92 -21
150 -37 136 -38 401 32 32 8 37 14 41 45 5 44 2 46 -149 84 -143 36 -155 37
-279 5 -54 -14 -101 -25 -105 -25 -8 0 -12 157 -5 169 3 4 52 -5 108 -21 125
-36 173 -33 333 16 61 19 113 35 118 35 4 1 7 -59 8 -131z m7 -698 l2 -120
-37 16 c-21 8 -45 17 -54 19 -9 2 -65 15 -124 30 -68 17 -119 24 -139 20 -17
-4 -71 -16 -119 -27 -48 -11 -90 -18 -94 -15 -3 4 -5 35 -5 69 1 105 -3 97 45
86 54 -12 62 -14 122 -31 63 -17 112 -14 178 12 15 6 27 9 27 7 0 -2 42 9 93
25 50 15 95 28 98 28 3 1 6 -53 7 -119z m3 -260 c1 -41 7 -85 12 -98 6 -12 8
-24 5 -27 -2 -3 -40 9 -84 26 -157 61 -254 78 -287 50 -11 -8 -209 -81 -222
-81 -3 0 7 185 10 188 2 2 50 -8 203 -43 16 -4 22 -1 22 12 0 16 1 16 13 0 11
-15 17 -16 67 -2 30 8 69 18 85 21 17 3 59 13 95 23 36 10 68 16 72 12 4 -3 8
-40 9 -81z"/>
<path d="M4215 6350 c3 -5 8 -10 11 -10 2 0 4 5 4 10 0 6 -5 10 -11 10 -5 0
-7 -4 -4 -10z"/>
</g>
</svg>
