<svg height="43" viewBox="0 0 26 43" width="26" xmlns="http://www.w3.org/2000/svg"><g fill="#c26098" fill-rule="evenodd" transform="matrix(0 1 -1 0 25.5 .5)"><g stroke="#c26098" stroke-linecap="round" stroke-linejoin="round" stroke-width=".64"><path d="m33.9153536 8.98693367c.0008308-.00116435.0012503-.00175011.0012503-.00175011l-.0000042.0036993c5.6266432 8.80208764 5.6085785 13.92545144-.0541943 15.37009154l.0000574-.0196735c-9.1732372-2.1908798-.2852292-14.87515821.0447796-15.34095278l.00007-.02398915c.0026817.0041924.0053621.00838397.0080412.0125747z" transform="matrix(0 1 -1 0 50.589744 -17.25641)"/><path d="m8.06919977 8.98693367c.00083074-.00116435.00125031-.00175011.00125031-.00175011l-.00000426.0036993c5.62664328 8.80208764 5.60857858 13.92545144-.05419425 15.37009154l.00005742-.0196735c-9.1732372-2.1908798-.28522923-14.87515821.04477957-15.34095278l.00007003-.02398915c.00268167.0041924.00536206.00838397.00804118.0125747z" transform="matrix(0 1 1 0 -8.589744 8.589744)"/><path d="m20.9922767.0125747c.0008307-.00116435.0012503-.00175011.0012503-.00175011l-.0000043.0036993c5.6266433 8.8020876 5.6085786 13.92545141-.0541942 15.37009151l.0000574-.0196734c-9.1732372-2.1908799-.2852292-14.87515828.0447796-15.34095285l.00007-.02398915c.0026817.0041924.0053621.00838397.0080412.0125747z"/></g><ellipse cx="21" cy="21.474359" opacity=".6" rx="3.553846" ry="3.525641"/></g></svg>