<svg height="60" viewBox="0 0 35 60" width="35" xmlns="http://www.w3.org/2000/svg"><path d="m35 30c0 .4809619-.2405498 1.0220441-.6013746 1.3827655l-28.02405495 28.0160321c-.36082475.3607214-.90206186.6012024-1.38316152.6012024-.48109965 0-1.02233677-.240481-1.38316151-.6012024l-3.00687285-3.006012c-.36082474-.3607215-.60137457-.8416834-.60137457-1.3827656 0-.4809619.24054983-1.022044.60137457-1.3827655l23.63402063-23.6272545-23.63402063-23.62725451c-.36082474-.36072144-.60137457-.90180361-.60137457-1.38276553s.24054983-1.02204409.60137457-1.38276553l3.00687285-3.00601202c.36082474-.36072145.90206186-.60120241 1.38316151-.60120241.48109966 0 1.02233677.24048096 1.38316152.60120241l28.02405495 28.01603209c.3608248.3607214.6013746.9018036.6013746 1.3827655z" fill="#292964" fill-rule="evenodd" transform="matrix(-1 0 0 1 35 0)"/></svg>