<svg height="60" viewBox="0 0 35 60" width="35" xmlns="http://www.w3.org/2000/svg"><path d="m1290 30c0 .4809619-.24055 1.0220441-.60137 1.3827655l-28.02406 28.0160321c-.36082.3607214-.90206.6012024-1.38316.6012024s-1.02234-.240481-1.38316-.6012024l-3.00688-3.006012c-.36082-.3607215-.60137-.8416834-.60137-1.3827656 0-.4809619.24055-1.022044.60137-1.3827655l23.63403-23.6272545-23.63403-23.62725451c-.36082-.36072144-.60137-.90180361-.60137-1.38276553s.24055-1.02204409.60137-1.38276553l3.00688-3.00601202c.36082-.36072145.90206-.60120241 1.38316-.60120241s1.02234.24048096 1.38316.60120241l28.02406 28.01603209c.36082.3607214.60137.9018036.60137 1.3827655z" fill="#292964" fill-rule="evenodd" transform="translate(-1255)"/></svg>