<svg height="44" viewBox="0 0 44 44" width="44" xmlns="http://www.w3.org/2000/svg"><path d="m22 44c-12.1502645 0-22-9.8497355-22-22s9.8497355-22 22-22 22 9.8497355 22 22-9.8497355 22-22 22zm13.9375-27.8125c-.083333-1.208333-.270833-2.25-.5625-3.125-.375-1.041667-.947917-1.947917-1.71875-2.71875-.770833-.77083302-1.677083-1.34375-2.71875-1.71875-.875-.29166698-1.90625-.46875-3.09375-.53125s-3.135417-.09375-5.84375-.09375-4.65625.03125-5.84375.09375-2.21875.23958302-3.09375.53125c-1.041667.375-1.947917.94791698-2.71875 1.71875-.77083302.770833-1.34375 1.677083-1.71875 2.71875-.29166698.875-.46875 1.90625-.53125 3.09375s-.09375 3.135417-.09375 5.84375.03125 4.65625.09375 5.84375.23958302 2.21875.53125 3.09375c.375 1.041667.94791698 1.947917 1.71875 2.71875.770833.770833 1.677083 1.322917 2.71875 1.65625.875.333333 1.90625.53125 3.09375.59375s3.135417.09375 5.84375.09375 4.65625-.03125 5.84375-.09375 2.21875-.239583 3.09375-.53125c1.041667-.375 1.947917-.947917 2.71875-1.71875s1.34375-1.677083 1.71875-2.71875c.291667-.875.46875-1.90625.53125-3.09375s.09375-3.135417.09375-5.84375-.020833-4.645833-.0625-5.8125zm-13.9375-1.375c-1.291667 0-2.489583.322917-3.59375.96875s-1.979167 1.520833-2.625 2.625-.96875 2.302083-.96875 3.59375.322917 2.489583.96875 3.59375 1.520833 1.979167 2.625 2.625 2.302083.96875 3.59375.96875 2.489583-.322917 3.59375-.96875 1.979167-1.520833 2.625-2.625.96875-2.302083.96875-3.59375-.322917-2.489583-.96875-3.59375-1.520833-1.979167-2.625-2.625-2.302083-.96875-3.59375-.96875zm0 11.875c-1.291667 0-2.395833-.458333-3.3125-1.375s-1.375-2.020833-1.375-3.3125.458333-2.395833 1.375-3.3125 2.020833-1.375 3.3125-1.375 2.395833.458333 3.3125 1.375 1.375 2.020833 1.375 3.3125-.458333 2.395833-1.375 3.3125-2.020833 1.375-3.3125 1.375zm9.1875-12.1875c0-.458333-.166667-.854167-.5-1.1875s-.729167-.5-1.1875-.5-.854167.166667-1.1875.5-.5.729167-.5 1.1875.166667.854167.5 1.1875.729167.5 1.1875.5.84375-.166667 1.15625-.5.489583-.729167.53125-1.1875zm1.75 15.75c-.5 1.25-1.395833 2.145833-2.6875 2.6875-.666667.25-1.791667.416667-3.375.5-.875.041667-2.166667.0625-3.875.0625h-2c-1.666667 0-2.958333-.020833-3.875-.0625-1.541667-.083333-2.666667-.25-3.375-.5-1.25-.5-2.145833-1.395833-2.6875-2.6875-.25-.708333-.416667-1.833333-.5-3.375-.041667-.916667-.0625-2.208333-.0625-3.875v-2c0-1.666667.020833-2.958333.0625-3.875.083333-1.583333.25-2.708333.5-3.375.5-1.291667 1.395833-2.1875 2.6875-2.6875.708333-.25 1.833333-.416667 3.375-.5.916667-.041667 2.208333-.0625 3.875-.0625h2c1.666667 0 2.958333.020833 3.875.0625 1.583333.083333 2.708333.25 3.375.5 1.291667.5 2.1875 1.395833 2.6875 2.6875.25.666667.416667 1.791667.5 3.375.041667.875.0625 2.166667.0625 3.875v2c0 1.666667-.020833 2.958333-.0625 3.875-.083333 1.541667-.25 2.666667-.5 3.375z" fill="#292964" fill-rule="evenodd" transform=""/></svg>