<svg height="44" viewBox="0 0 44 44" width="44" xmlns="http://www.w3.org/2000/svg"><path d="m22 44c-12.1502645 0-22-9.8497355-22-22s9.8497355-22 22-22 22 9.8497355 22 22-9.8497355 22-22 22zm14-29.26875c-1.0304569.4492188-2.1497462.7726562-3.3045685.8984375 1.1903553-.71875 2.0964467-1.8507812 2.5228426-3.1984375-1.1015228.6648437-2.3451777 1.15-3.642132 1.4015625-1.0482233-1.1320312-2.5406091-1.8328125-4.1928934-1.8328125-3.180203 0-5.7385786 2.6054688-5.7385786 5.8039063 0 .4492187.0532994.8984375.1421319 1.3296874-4.7614213-.2515624-9.0076142-2.5515625-11.83248728-6.0734374-.49746193.8624999-.78172589 1.8507812-.78172589 2.9289062 0 2.0125 1.01269037 3.7914062 2.55837567 4.8335937-.9416244-.0359375-1.82994927-.3054687-2.59390866-.7367187v.071875c0 2.8210937 1.97208126 5.1570313 4.60152286 5.6960938-.4796955.1257812-.9949239.1976562-1.5101523.1976562-.3730965 0-.7284264-.0359375-1.0837563-.0898438.7284263 2.3000001 2.8426395 3.9710938 5.3654822 4.025-1.9720812 1.5632813-4.4416244 2.4796875-7.1243655 2.4796875-.47969543 0-.92385787-.0179687-1.3857868-.071875 2.5406091 1.6531251 5.5609137 2.6054688 8.8121827 2.6054688 10.5532995 0 16.3274112-8.840625 16.3274112-16.5132812 0-.2515626 0-.503125-.0177665-.7546875 1.1192894-.8265625 2.0964467-1.8507813 2.8781726-3.0007813z" fill="#292964" fill-rule="evenodd" transform=""/></svg>