<svg height="11" viewBox="0 0 13 11" width="13" xmlns="http://www.w3.org/2000/svg"><path d="m15.9806311 7.24691072c0 .20497653-.0819906.40995306-.2295737.55753616l-7.05119255 7.05119252c-.1475831.1475831-.35255963.2295737-.55753615.2295737-.20497653 0-.40995306-.0819906-.55753616-.2295737l-4.08313243-4.0831324c-.1475831-.1475831-.22957372-.3525596-.22957372-.5575362 0-.2049765.08199062-.40995301.22957372-.55753611l1.11507231-1.11507231c.1475831-.1475831.35255963-.22957372.55753615-.22957372.20497653 0 .40995306.08199062.55753616.22957372l2.41052397 2.41872302 5.3785841-5.38678315c.1475831-.1475831.3525596-.22957371.5575361-.22957371.2049766 0 .4099531.08199061.5575362.22957371l1.1150723 1.11507231c.1475831.1475831.2295737.35255963.2295737.55753616z" fill="#fff" fill-rule="evenodd" transform="translate(-3 -5)"/></svg>