<svg height="18" viewBox="0 0 10 18" width="10" xmlns="http://www.w3.org/2000/svg"><path d="m10 19c0 .1442886-.06872852.3066132-.17182131.4148297l-8.00687285 8.4048096c-.10309278.1082164-.25773196.1803607-.395189.1803607-.13745705 0-.29209622-.0721443-.395189-.1803607l-.85910653-.9018036c-.10309279-.1082165-.17182131-.252505-.17182131-.4148297 0-.1442886.06872852-.3066132.17182131-.4148296l6.75257732-7.0881764-6.75257732-7.0881764c-.10309279-.1082164-.17182131-.270541-.17182131-.4148296s.06872852-.3066132.17182131-.4148297l.85910653-.9018036c.10309278-.1082164.25773195-.1803607.395189-.1803607.13745704 0 .29209622.0721443.395189.1803607l8.00687285 8.4048096c.10309279.1082165.17182131.2705411.17182131.4148297z" fill="#8797af" fill-opacity=".3" fill-rule="evenodd" transform="translate(0 -10)"/></svg>