<svg height="18" viewBox="0 0 10 18" width="10" xmlns="http://www.w3.org/2000/svg"><path d="m94 19c0 .1442886-.0687285.3066132-.1718213.4148297l-8.0068729 8.4048096c-.1030927.1082164-.2577319.1803607-.395189.1803607-.137457 0-.2920962-.0721443-.395189-.1803607l-.8591065-.9018036c-.1030928-.1082165-.1718213-.252505-.1718213-.4148297 0-.1442886.0687285-.3066132.1718213-.4148296l6.7525773-7.0881764-6.7525773-7.0881764c-.1030928-.1082164-.1718213-.270541-.1718213-.4148296s.0687285-.3066132.1718213-.4148297l.8591065-.9018036c.1030928-.1082164.257732-.1803607.395189-.1803607.1374571 0 .2920963.0721443.395189.1803607l8.0068729 8.4048096c.1030928.1082165.1718213.2705411.1718213.4148297z" fill="#222" fill-rule="evenodd" transform="translate(-84 -10)"/></svg>